<svg width="1440" height="528" viewBox="0 0 1440 528" fill="none" xmlns="http://www.w3.org/2000/svg">
<path d="M-13 -12V168L713.5 78L390.302 -12H-13Z" fill="#2F2F2F"/>
<path d="M1440 -12H390.302L713.5 78L1440 -12Z" fill="#2F2F2F"/>
<path d="M390.302 -12H1440L713.5 78M390.302 -12H-13V168L713.5 78M390.302 -12L713.5 78" stroke="black"/>
<path d="M720 78L334.25 435.565L0 527V158.197L720 78Z" fill="#6A6A6A" stroke="black"/>
<path d="M80 78.48C78.24 78.48 76.7067 78.16 75.4 77.52C74.12 76.8533 73.0533 75.9067 72.2 74.68C71.3733 73.4533 70.76 71.9467 70.36 70.16C69.96 68.3733 69.76 66.3333 69.76 64.04C69.76 61.7733 69.96 59.7467 70.36 57.96C70.76 56.1467 71.3733 54.6267 72.2 53.4C73.0533 52.1733 74.12 51.24 75.4 50.6C76.7067 49.9333 78.24 49.6 80 49.6C81.76 49.6 83.28 49.9333 84.56 50.6C85.8667 51.24 86.9333 52.1733 87.76 53.4C88.6133 54.6267 89.24 56.1467 89.64 57.96C90.04 59.7467 90.24 61.7733 90.24 64.04C90.24 66.3333 90.04 68.3733 89.64 70.16C89.24 71.9467 88.6133 73.4533 87.76 74.68C86.9333 75.9067 85.8667 76.8533 84.56 77.52C83.28 78.16 81.76 78.48 80 78.48ZM80 74.76C82 74.76 83.4133 74.0133 84.24 72.52C85.0667 71 85.48 68.9467 85.48 66.36V61.68C85.48 59.12 85.0667 57.0933 84.24 55.6C83.4133 54.08 82 53.32 80 53.32C78 53.32 76.5867 54.08 75.76 55.6C74.9333 57.0933 74.52 59.12 74.52 61.68V66.4C74.52 68.96 74.9333 71 75.76 72.52C76.5867 74.0133 78 74.76 80 74.76ZM99.3444 78V57.36H103.064V60.04H103.264C103.584 59.16 104.038 58.4133 104.624 57.8C105.238 57.1867 106.104 56.88 107.224 56.88C108.318 56.88 109.158 57.1867 109.744 57.8C110.358 58.3867 110.744 59.2 110.904 60.24H111.064C111.438 59.3067 111.958 58.52 112.624 57.88C113.291 57.2133 114.251 56.88 115.504 56.88C117.104 56.88 118.211 57.44 118.824 58.56C119.464 59.68 119.784 61.32 119.784 63.48V78H116.064V64.04C116.064 62.6 115.891 61.6133 115.544 61.08C115.198 60.52 114.638 60.24 113.864 60.24C113.171 60.24 112.584 60.48 112.104 60.96C111.651 61.4133 111.424 62.1067 111.424 63.04V78H107.704V64.04C107.704 62.6 107.531 61.6133 107.184 61.08C106.864 60.52 106.318 60.24 105.544 60.24C104.824 60.24 104.224 60.48 103.744 60.96C103.291 61.4133 103.064 62.1067 103.064 63.04V78H99.3444ZM146.849 78C145.595 78 144.649 77.68 144.009 77.04C143.395 76.4 143.022 75.56 142.889 74.52H142.689C142.289 75.7733 141.555 76.7467 140.489 77.44C139.449 78.1333 138.115 78.48 136.489 78.48C134.382 78.48 132.702 77.9333 131.449 76.84C130.195 75.72 129.569 74.1867 129.569 72.24C129.569 70.24 130.302 68.72 131.769 67.68C133.262 66.6133 135.542 66.08 138.609 66.08H142.569V64.48C142.569 61.68 141.089 60.28 138.129 60.28C136.795 60.28 135.715 60.5467 134.889 61.08C134.062 61.5867 133.369 62.2667 132.809 63.12L130.209 61C130.795 59.88 131.782 58.92 133.169 58.12C134.555 57.2933 136.342 56.88 138.529 56.88C141.142 56.88 143.195 57.5067 144.689 58.76C146.182 60.0133 146.929 61.8267 146.929 64.2V74.56H149.529V78H146.849ZM137.729 75.28C139.142 75.28 140.302 74.96 141.209 74.32C142.115 73.68 142.569 72.8533 142.569 71.84V68.84H138.689C135.542 68.84 133.969 69.7867 133.969 71.68V72.48C133.969 73.4133 134.302 74.12 134.969 74.6C135.635 75.0533 136.555 75.28 137.729 75.28ZM159.793 74.48H165.273V60.88H159.793V57.36H169.633V62.84H169.873C170.06 62.12 170.326 61.4267 170.673 60.76C171.02 60.0933 171.46 59.52 171.993 59.04C172.526 58.5333 173.18 58.1333 173.953 57.84C174.726 57.52 175.633 57.36 176.673 57.36H179.153V61.52H175.073C173.473 61.52 172.166 62 171.153 62.96C170.14 63.8933 169.633 65.16 169.633 66.76V74.48H177.113V78H159.793V74.48ZM219.362 78V50.08H237.322V53.84H223.842V61.96H236.082V65.72H223.842V78H219.362ZM265.186 78C263.933 78 262.986 77.68 262.346 77.04C261.733 76.4 261.36 75.56 261.226 74.52H261.026C260.626 75.7733 259.893 76.7467 258.826 77.44C257.786 78.1333 256.453 78.48 254.826 78.48C252.72 78.48 251.04 77.9333 249.786 76.84C248.533 75.72 247.906 74.1867 247.906 72.24C247.906 70.24 248.64 68.72 250.106 67.68C251.6 66.6133 253.88 66.08 256.946 66.08H260.906V64.48C260.906 61.68 259.426 60.28 256.466 60.28C255.133 60.28 254.053 60.5467 253.226 61.08C252.4 61.5867 251.706 62.2667 251.146 63.12L248.546 61C249.133 59.88 250.12 58.92 251.506 58.12C252.893 57.2933 254.68 56.88 256.866 56.88C259.48 56.88 261.533 57.5067 263.026 58.76C264.52 60.0133 265.266 61.8267 265.266 64.2V74.56H267.866V78H265.186ZM256.066 75.28C257.48 75.28 258.64 74.96 259.546 74.32C260.453 73.68 260.906 72.8533 260.906 71.84V68.84H257.026C253.88 68.84 252.306 69.7867 252.306 71.68V72.48C252.306 73.4133 252.64 74.12 253.306 74.6C253.973 75.0533 254.893 75.28 256.066 75.28ZM275.891 57.36H279.611L281.611 74.72H281.971L285.051 57.36H289.291L292.331 74.72H292.691L294.731 57.36H298.291L295.411 78H290.051L287.291 62H286.931L284.131 78H278.771L275.891 57.36ZM307.755 78V74.16L320.315 60.88H308.195V57.36H325.195V61.2L312.635 74.48H325.595V78H307.755ZM352.299 57.36H356.699L346.699 82C346.166 83.3333 345.459 84.3333 344.579 85C343.726 85.6667 342.486 86 340.859 86H337.379V82.48H342.259L344.139 77.72L335.819 57.36H340.379L343.659 66L346.219 73.08H346.459L349.019 66L352.299 57.36Z" fill="white"/>
<path d="M84.584 225.432C82.4 225.432 80.564 225.048 79.076 224.28C77.588 223.512 76.364 222.492 75.404 221.22L77.996 218.736C78.956 219.888 79.976 220.74 81.056 221.292C82.136 221.82 83.36 222.084 84.728 222.084C86.312 222.084 87.524 221.724 88.364 221.004C89.228 220.284 89.66 219.252 89.66 217.908C89.66 216.828 89.348 216 88.724 215.424C88.1 214.824 87.032 214.392 85.52 214.128L82.784 213.696C81.584 213.504 80.576 213.192 79.76 212.76C78.944 212.304 78.284 211.776 77.78 211.176C77.276 210.552 76.904 209.868 76.664 209.124C76.448 208.356 76.34 207.552 76.34 206.712C76.34 204.336 77.108 202.536 78.644 201.312C80.18 200.064 82.292 199.44 84.98 199.44C86.972 199.44 88.664 199.764 90.056 200.412C91.472 201.036 92.612 201.924 93.476 203.076L90.956 205.596C90.26 204.756 89.432 204.084 88.472 203.58C87.536 203.052 86.372 202.788 84.98 202.788C83.492 202.788 82.352 203.112 81.56 203.76C80.792 204.384 80.408 205.308 80.408 206.532C80.408 207.564 80.708 208.38 81.308 208.98C81.932 209.556 83.024 209.976 84.584 210.24L87.248 210.708C89.504 211.116 91.148 211.944 92.18 213.192C93.212 214.416 93.728 215.916 93.728 217.692C93.728 218.844 93.524 219.9 93.116 220.86C92.732 221.82 92.144 222.636 91.352 223.308C90.584 223.98 89.624 224.508 88.472 224.892C87.344 225.252 86.048 225.432 84.584 225.432ZM111.426 225.432C110.058 225.432 108.822 225.204 107.718 224.748C106.638 224.292 105.714 223.644 104.946 222.804C104.202 221.964 103.626 220.944 103.218 219.744C102.81 218.544 102.606 217.2 102.606 215.712C102.606 214.224 102.81 212.88 103.218 211.68C103.626 210.48 104.202 209.46 104.946 208.62C105.714 207.78 106.638 207.132 107.718 206.676C108.822 206.22 110.058 205.992 111.426 205.992C112.794 205.992 114.018 206.22 115.098 206.676C116.202 207.132 117.126 207.78 117.87 208.62C118.638 209.46 119.226 210.48 119.634 211.68C120.042 212.88 120.246 214.224 120.246 215.712C120.246 217.2 120.042 218.544 119.634 219.744C119.226 220.944 118.638 221.964 117.87 222.804C117.126 223.644 116.202 224.292 115.098 224.748C114.018 225.204 112.794 225.432 111.426 225.432ZM111.426 222.336C112.866 222.336 114.006 221.904 114.846 221.04C115.71 220.152 116.142 218.844 116.142 217.116V214.308C116.142 212.58 115.71 211.284 114.846 210.42C114.006 209.532 112.866 209.088 111.426 209.088C109.986 209.088 108.834 209.532 107.97 210.42C107.13 211.284 106.71 212.58 106.71 214.308V217.116C106.71 218.844 107.13 220.152 107.97 221.04C108.834 221.904 109.986 222.336 111.426 222.336ZM130.06 221.832H136V209.592H129.7V206.424H136V203.076C136 201.684 136.384 200.556 137.152 199.692C137.92 198.804 139.12 198.36 140.752 198.36H147.016V201.528H139.924V206.424H147.016V209.592H139.924V221.832H146.188V225H130.06V221.832ZM165.794 225C164.162 225 162.962 224.568 162.194 223.704C161.426 222.816 161.042 221.676 161.042 220.284V209.592H155.318V206.424H159.386C160.082 206.424 160.574 206.292 160.862 206.028C161.15 205.74 161.294 205.236 161.294 204.516V199.872H164.966V206.424H172.886V209.592H164.966V221.832H172.886V225H165.794ZM181.224 206.424H184.572L186.372 222.048H186.696L189.468 206.424H193.284L196.02 222.048H196.344L198.18 206.424H201.384L198.792 225H193.968L191.484 210.6H191.16L188.64 225H183.816L181.224 206.424ZM224.842 225C223.714 225 222.862 224.712 222.286 224.136C221.734 223.56 221.398 222.804 221.278 221.868H221.098C220.738 222.996 220.078 223.872 219.118 224.496C218.182 225.12 216.982 225.432 215.518 225.432C213.622 225.432 212.11 224.94 210.982 223.956C209.854 222.948 209.29 221.568 209.29 219.816C209.29 218.016 209.95 216.648 211.27 215.712C212.614 214.752 214.666 214.272 217.426 214.272H220.99V212.832C220.99 210.312 219.658 209.052 216.994 209.052C215.794 209.052 214.822 209.292 214.078 209.772C213.334 210.228 212.71 210.84 212.206 211.608L209.866 209.7C210.394 208.692 211.282 207.828 212.53 207.108C213.778 206.364 215.386 205.992 217.354 205.992C219.706 205.992 221.554 206.556 222.898 207.684C224.242 208.812 224.914 210.444 224.914 212.58V221.904H227.254V225H224.842ZM216.634 222.552C217.906 222.552 218.95 222.264 219.766 221.688C220.582 221.112 220.99 220.368 220.99 219.456V216.756H217.498C214.666 216.756 213.25 217.608 213.25 219.312V220.032C213.25 220.872 213.55 221.508 214.15 221.94C214.75 222.348 215.578 222.552 216.634 222.552ZM236.492 221.832H241.424V209.592H236.492V206.424H245.348V211.356H245.564C245.732 210.708 245.972 210.084 246.284 209.484C246.596 208.884 246.992 208.368 247.472 207.936C247.952 207.48 248.54 207.12 249.236 206.856C249.932 206.568 250.748 206.424 251.684 206.424H253.916V210.168H250.244C248.804 210.168 247.628 210.6 246.716 211.464C245.804 212.304 245.348 213.444 245.348 214.884V221.832H252.08V225H236.492V221.832ZM271.578 225.432C270.162 225.432 268.89 225.204 267.762 224.748C266.634 224.292 265.686 223.644 264.918 222.804C264.15 221.964 263.562 220.956 263.154 219.78C262.746 218.58 262.542 217.236 262.542 215.748C262.542 214.26 262.746 212.916 263.154 211.716C263.586 210.516 264.174 209.496 264.918 208.656C265.686 207.792 266.61 207.132 267.69 206.676C268.77 206.22 269.97 205.992 271.29 205.992C272.586 205.992 273.762 206.22 274.818 206.676C275.874 207.108 276.774 207.732 277.518 208.548C278.262 209.364 278.826 210.336 279.21 211.464C279.618 212.592 279.822 213.84 279.822 215.208V216.684H266.502V217.296C266.502 218.76 266.958 219.96 267.87 220.896C268.782 221.808 270.042 222.264 271.65 222.264C272.85 222.264 273.87 222.012 274.71 221.508C275.574 220.98 276.27 220.284 276.798 219.42L279.246 221.58C278.622 222.66 277.662 223.572 276.366 224.316C275.094 225.06 273.498 225.432 271.578 225.432ZM271.29 208.98C270.594 208.98 269.946 209.1 269.346 209.34C268.77 209.58 268.266 209.928 267.834 210.384C267.426 210.816 267.102 211.332 266.862 211.932C266.622 212.532 266.502 213.192 266.502 213.912V214.164H275.826V213.804C275.826 212.34 275.406 211.176 274.566 210.312C273.75 209.424 272.658 208.98 271.29 208.98ZM316.729 225V199.872H332.461V203.256H320.761V210.564H332.029V213.948H320.761V221.616H332.461V225H316.729ZM343.283 225V206.424H347.207V209.592H347.387C347.579 209.112 347.819 208.656 348.107 208.224C348.419 207.768 348.791 207.384 349.223 207.072C349.655 206.736 350.159 206.472 350.735 206.28C351.311 206.088 351.983 205.992 352.751 205.992C354.623 205.992 356.135 206.604 357.287 207.828C358.439 209.052 359.015 210.792 359.015 213.048V225H355.091V213.624C355.091 210.672 353.807 209.196 351.239 209.196C350.735 209.196 350.243 209.268 349.763 209.412C349.283 209.532 348.851 209.724 348.467 209.988C348.083 210.252 347.771 210.588 347.531 210.996C347.315 211.404 347.207 211.872 347.207 212.4V225H343.283ZM387.405 227.016C387.405 228.936 386.601 230.352 384.993 231.264C383.385 232.176 380.937 232.632 377.649 232.632C376.041 232.632 374.685 232.524 373.581 232.308C372.501 232.116 371.613 231.828 370.917 231.444C370.245 231.06 369.753 230.592 369.441 230.04C369.153 229.488 369.009 228.864 369.009 228.168C369.009 227.16 369.285 226.368 369.837 225.792C370.413 225.24 371.217 224.832 372.249 224.568V224.208C371.625 223.968 371.121 223.632 370.737 223.2C370.377 222.768 370.197 222.204 370.197 221.508C370.197 220.596 370.509 219.912 371.133 219.456C371.757 218.976 372.561 218.616 373.545 218.376V218.196C372.417 217.668 371.541 216.924 370.917 215.964C370.293 215.004 369.981 213.852 369.981 212.508C369.981 211.524 370.161 210.636 370.521 209.844C370.881 209.028 371.385 208.344 372.033 207.792C372.705 207.216 373.497 206.772 374.409 206.46C375.345 206.148 376.389 205.992 377.541 205.992C378.837 205.992 380.001 206.196 381.033 206.604V205.992C381.033 205.272 381.237 204.672 381.645 204.192C382.053 203.712 382.677 203.472 383.517 203.472H386.901V206.568H382.581V207.432C383.397 207.984 384.021 208.692 384.453 209.556C384.885 210.396 385.101 211.38 385.101 212.508C385.101 213.492 384.921 214.392 384.561 215.208C384.201 216 383.685 216.684 383.013 217.26C382.365 217.812 381.573 218.244 380.637 218.556C379.725 218.844 378.693 218.988 377.541 218.988C376.725 218.988 375.957 218.916 375.237 218.772C374.805 218.892 374.373 219.096 373.941 219.384C373.509 219.672 373.293 220.068 373.293 220.572C373.293 221.148 373.569 221.508 374.121 221.652C374.673 221.796 375.357 221.868 376.173 221.868H380.349C382.845 221.868 384.645 222.348 385.749 223.308C386.853 224.244 387.405 225.48 387.405 227.016ZM383.733 227.268C383.733 226.644 383.481 226.14 382.977 225.756C382.473 225.396 381.561 225.216 380.241 225.216H373.797C372.885 225.648 372.429 226.344 372.429 227.304C372.429 228 372.717 228.6 373.293 229.104C373.893 229.608 374.877 229.86 376.245 229.86H379.161C380.649 229.86 381.777 229.632 382.545 229.176C383.337 228.744 383.733 228.108 383.733 227.268ZM377.541 216.288C378.813 216.288 379.749 215.988 380.349 215.388C380.949 214.788 381.249 213.984 381.249 212.976V212.004C381.249 210.996 380.949 210.192 380.349 209.592C379.749 208.992 378.813 208.692 377.541 208.692C376.269 208.692 375.333 208.992 374.733 209.592C374.133 210.192 373.833 210.996 373.833 212.004V212.976C373.833 213.984 374.133 214.788 374.733 215.388C375.333 215.988 376.269 216.288 377.541 216.288ZM405.463 203.04C404.455 203.04 403.747 202.836 403.339 202.428C402.955 202.02 402.763 201.516 402.763 200.916V200.16C402.763 199.56 402.955 199.056 403.339 198.648C403.747 198.24 404.443 198.036 405.427 198.036C406.435 198.036 407.131 198.24 407.515 198.648C407.923 199.056 408.127 199.56 408.127 200.16V200.916C408.127 201.516 407.923 202.02 407.515 202.428C407.131 202.836 406.447 203.04 405.463 203.04ZM397.147 221.832H403.483V209.592H397.147V206.424H407.407V221.832H413.347V225H397.147V221.832ZM423.161 225V206.424H427.085V209.592H427.265C427.457 209.112 427.697 208.656 427.985 208.224C428.297 207.768 428.669 207.384 429.101 207.072C429.533 206.736 430.037 206.472 430.613 206.28C431.189 206.088 431.861 205.992 432.629 205.992C434.501 205.992 436.013 206.604 437.165 207.828C438.317 209.052 438.893 210.792 438.893 213.048V225H434.969V213.624C434.969 210.672 433.685 209.196 431.117 209.196C430.613 209.196 430.121 209.268 429.641 209.412C429.161 209.532 428.729 209.724 428.345 209.988C427.961 210.252 427.649 210.588 427.409 210.996C427.193 211.404 427.085 211.872 427.085 212.4V225H423.161ZM457.959 225.432C456.543 225.432 455.271 225.204 454.143 224.748C453.015 224.292 452.067 223.644 451.299 222.804C450.531 221.964 449.943 220.956 449.535 219.78C449.127 218.58 448.923 217.236 448.923 215.748C448.923 214.26 449.127 212.916 449.535 211.716C449.967 210.516 450.555 209.496 451.299 208.656C452.067 207.792 452.991 207.132 454.071 206.676C455.151 206.22 456.351 205.992 457.671 205.992C458.967 205.992 460.143 206.22 461.199 206.676C462.255 207.108 463.155 207.732 463.899 208.548C464.643 209.364 465.207 210.336 465.591 211.464C465.999 212.592 466.203 213.84 466.203 215.208V216.684H452.883V217.296C452.883 218.76 453.339 219.96 454.251 220.896C455.163 221.808 456.423 222.264 458.031 222.264C459.231 222.264 460.251 222.012 461.091 221.508C461.955 220.98 462.651 220.284 463.179 219.42L465.627 221.58C465.003 222.66 464.043 223.572 462.747 224.316C461.475 225.06 459.879 225.432 457.959 225.432ZM457.671 208.98C456.975 208.98 456.327 209.1 455.727 209.34C455.151 209.58 454.647 209.928 454.215 210.384C453.807 210.816 453.483 211.332 453.243 211.932C453.003 212.532 452.883 213.192 452.883 213.912V214.164H462.207V213.804C462.207 212.34 461.787 211.176 460.947 210.312C460.131 209.424 459.039 208.98 457.671 208.98ZM484.585 225.432C483.169 225.432 481.897 225.204 480.769 224.748C479.641 224.292 478.693 223.644 477.925 222.804C477.157 221.964 476.569 220.956 476.161 219.78C475.753 218.58 475.549 217.236 475.549 215.748C475.549 214.26 475.753 212.916 476.161 211.716C476.593 210.516 477.181 209.496 477.925 208.656C478.693 207.792 479.617 207.132 480.697 206.676C481.777 206.22 482.977 205.992 484.297 205.992C485.593 205.992 486.769 206.22 487.825 206.676C488.881 207.108 489.781 207.732 490.525 208.548C491.269 209.364 491.833 210.336 492.217 211.464C492.625 212.592 492.829 213.84 492.829 215.208V216.684H479.509V217.296C479.509 218.76 479.965 219.96 480.877 220.896C481.789 221.808 483.049 222.264 484.657 222.264C485.857 222.264 486.877 222.012 487.717 221.508C488.581 220.98 489.277 220.284 489.805 219.42L492.253 221.58C491.629 222.66 490.669 223.572 489.373 224.316C488.101 225.06 486.505 225.432 484.585 225.432ZM484.297 208.98C483.601 208.98 482.953 209.1 482.353 209.34C481.777 209.58 481.273 209.928 480.841 210.384C480.433 210.816 480.109 211.332 479.869 211.932C479.629 212.532 479.509 213.192 479.509 213.912V214.164H488.833V213.804C488.833 212.34 488.413 211.176 487.573 210.312C486.757 209.424 485.665 208.98 484.297 208.98ZM502.751 221.832H507.683V209.592H502.751V206.424H511.607V211.356H511.823C511.991 210.708 512.231 210.084 512.543 209.484C512.855 208.884 513.251 208.368 513.731 207.936C514.211 207.48 514.799 207.12 515.495 206.856C516.191 206.568 517.007 206.424 517.943 206.424H520.175V210.168H516.503C515.063 210.168 513.887 210.6 512.975 211.464C512.063 212.304 511.607 213.444 511.607 214.884V221.832H518.339V225H502.751V221.832Z" fill="white"/>
</svg>
